<svg id="Layer_1" data-name="Layer 1" xmlns="http://www.w3.org/2000/svg" viewBox="0 0 108.22 128.1"><defs><style>.cls-1{font-size:28.74px;font-family:Comfortaa-Bold, Comfortaa;font-weight:700;}.cls-1,.cls-5{fill:#00a651;}.cls-2{letter-spacing:-0.05em;}.cls-3{letter-spacing:-0.02em;}.cls-4{letter-spacing:0em;}</style></defs><text class="cls-1" transform="translate(0 120.17)"><tspan class="cls-2">k</tspan><tspan x="14.91" y="0">ada</tspan><tspan class="cls-3" x="73.91" y="0">y</tspan><tspan class="cls-4" x="88.83" y="0">o</tspan></text><path class="cls-5" d="M147.88,90.54a26.59,26.59,0,0,1-4.62,5.14,7.94,7.94,0,0,1-11-.67,42.28,42.28,0,0,1-4.51-5.78,29.91,29.91,0,0,0-20.45-13c-3-.52-3.65-.24-5.22,2.36a30.49,30.49,0,0,0-4,15.06v0c.21,1.59.49,4.07.86,6.55.67,4.55-.67,7.63-4.3,9.68-3.14,1.78-7.21,1.16-10.41-1.57-4.82-4.11-5.83-9.7-3.47-16.74a164.23,164.23,0,0,0,4.94-17q.87-4,1.35-8a3.66,3.66,0,0,1,2.73-3.1,68.53,68.53,0,0,0,29.33-15.55,70.26,70.26,0,0,0,15.67-21.45,20.37,20.37,0,0,0,1.52-4.53,17.1,17.1,0,0,0,.31-3.94,32.42,32.42,0,0,1-1.85,3.95,33.9,33.9,0,0,1-2.21,3.48,58.85,58.85,0,0,1-17.39,18.54,54.94,54.94,0,0,1-24,8.47,3.18,3.18,0,0,1-3.56-3Q87.34,46,87,42.61c-.35-3.14-1.79-6.16-2.8-9.21s-2.27-5.77-3-8.76C80,19.76,82.72,15.56,87.6,14.43a35.36,35.36,0,0,1,6.28-1c4.59-.21,7.25,1.68,8.3,6.14a84.61,84.61,0,0,1,1.49,9.93c.4,3.39.59,6.8.91,10.2.12,1.35.19,2.78,1.72,3.42s2.59-.28,3.62-1.18c2.87-2.5,5.86-4.87,8.54-7.56,3.82-3.83,6.38-8.36,6.65-14a7.89,7.89,0,0,1,4.48-6.79A12.74,12.74,0,0,1,136.48,12h0A8.47,8.47,0,0,1,141,13a8,8,0,0,1,5.14,7.15c.28,3.13-1,6.06-3.71,7.38-4.87,2.36-7.48,6.37-10,10.81-4.1,7.29-10,13.08-16.37,18.4-3,2.49-3.13,3.85-.11,6.29a73.11,73.11,0,0,0,7.84,5.28c6.31,3.9,12.72,7.63,19,11.6a22.52,22.52,0,0,1,4.72,4.22C149.31,86.24,149.47,88.27,147.88,90.54Z" transform="translate(-69.22 -11.98)"/></svg>